<svg id="Layer_1" data-name="Layer 1" xmlns="http://www.w3.org/2000/svg" xmlns:xlink="http://www.w3.org/1999/xlink" viewBox="0 0 865.46 142.49"><defs><style>.cls-1{fill:#4d2011;}.cls-2{fill:url(#linear-gradient);}.cls-3{fill:url(#Orange_Yellow);}.cls-4{fill:url(#Orange_Yellow-2);}.cls-5{fill:url(#Orange_Yellow-3);}.cls-6{fill:url(#Orange_Yellow-4);}.cls-7{fill:url(#Orange_Yellow-5);}.cls-8{fill:url(#Orange_Yellow-6);}.cls-9{fill:url(#Orange_Yellow-7);}.cls-10{fill:url(#Orange_Yellow-8);}.cls-11{fill:url(#Orange_Yellow-9);}.cls-12{fill:url(#Orange_Yellow-10);}.cls-13{fill:url(#Orange_Yellow-11);}.cls-14{fill:url(#Orange_Yellow-12);}.cls-15{fill:url(#Orange_Yellow-13);}.cls-16{font-size:105.29px;fill:#ee6724;font-family:CoolveticaRg-Regular, Coolvetica;}</style><linearGradient id="linear-gradient" x1="368.63" y1="10.33" x2="361.58" y2="49.13" gradientUnits="userSpaceOnUse"><stop offset="0" stop-color="#f6ea08"/><stop offset="0" stop-color="#f6e908"/><stop offset="0.09" stop-color="#fad60a"/><stop offset="0.18" stop-color="#fccb0c"/><stop offset="0.28" stop-color="#fdc70c"/><stop offset="0.67" stop-color="#f3903f"/><stop offset="0.89" stop-color="#ed683c"/><stop offset="1" stop-color="#e93e3a"/></linearGradient><linearGradient id="Orange_Yellow" x1="477.82" y1="-55.41" x2="470.77" y2="-16.61" gradientTransform="matrix(0.86, 0.52, -0.52, 0.86, -41.63, -179.14)" gradientUnits="userSpaceOnUse"><stop offset="0" stop-color="#fff33b"/><stop offset="0.04" stop-color="#fee72e"/><stop offset="0.12" stop-color="#fed51b"/><stop offset="0.2" stop-color="#fdca10"/><stop offset="0.28" stop-color="#fdc70c"/><stop offset="0.67" stop-color="#f3903f"/><stop offset="0.89" stop-color="#ed683c"/><stop offset="1" stop-color="#e93e3a"/></linearGradient><linearGradient id="Orange_Yellow-2" x1="530.89" y1="-117.51" x2="523.84" y2="-78.71" gradientTransform="translate(-0.01 -314.44) rotate(53.1)" xlink:href="#Orange_Yellow"/><linearGradient id="Orange_Yellow-3" x1="553" y1="-186.9" x2="545.94" y2="-148.1" gradientTransform="translate(111.22 -431.2) rotate(76.68)" xlink:href="#Orange_Yellow"/><linearGradient id="Orange_Yellow-4" x1="542.62" y1="-250.7" x2="535.56" y2="-211.9" gradientTransform="translate(287.63 -493.73) rotate(102.23)" xlink:href="#Orange_Yellow"/><linearGradient id="Orange_Yellow-5" x1="504.15" y1="-287.99" x2="497.1" y2="-249.2" gradientTransform="translate(486.67 -463.25) rotate(127.96)" xlink:href="#Orange_Yellow"/><linearGradient id="Orange_Yellow-6" x1="458.66" y1="-290.21" x2="451.61" y2="-251.42" gradientTransform="matrix(-0.88, 0.47, -0.47, -0.88, 648.97, -347.29)" xlink:href="#Orange_Yellow"/><linearGradient id="Orange_Yellow-7" x1="402.73" y1="-252.1" x2="395.68" y2="-213.3" gradientTransform="matrix(-1, -0.01, 0.01, -1, 760.95, -118.65)" xlink:href="#Orange_Yellow"/><linearGradient id="Orange_Yellow-8" x1="378.96" y1="-190.42" x2="371.91" y2="-151.63" gradientTransform="translate(754.74 105.06) rotate(-155.42)" xlink:href="#Orange_Yellow"/><linearGradient id="Orange_Yellow-9" x1="381.29" y1="-104.28" x2="374.24" y2="-65.48" gradientTransform="translate(637.08 327.86) rotate(-130.01)" xlink:href="#Orange_Yellow"/><linearGradient id="Orange_Yellow-10" x1="420.51" y1="-9.5" x2="413.46" y2="29.29" gradientTransform="matrix(-0.26, -0.97, 0.97, -0.26, 419.08, 483.08)" xlink:href="#Orange_Yellow"/><linearGradient id="Orange_Yellow-11" x1="486.1" y1="65.58" x2="479.05" y2="104.38" gradientTransform="translate(179.89 528.47) rotate(-83.03)" xlink:href="#Orange_Yellow"/><linearGradient id="Orange_Yellow-12" x1="589.14" y1="132.57" x2="582.09" y2="171.37" gradientTransform="matrix(0.55, -0.83, 0.83, 0.55, -120.65, 447.13)" xlink:href="#Orange_Yellow"/><linearGradient id="Orange_Yellow-13" x1="723.13" y1="159.36" x2="716.08" y2="198.16" gradientTransform="translate(-376.6 199.57) rotate(-26.94)" xlink:href="#Orange_Yellow"/></defs><title>sunflowerlab_logo</title><path class="cls-1" d="M387.12,68.93a25.7,25.7,0,1,1-25.7-25.38A25.54,25.54,0,0,1,387.12,68.93Z"/><path class="cls-2" d="M366.27,41.14s6.26-2,7.41-11.46c0,0,1.58-12-5.21-16.14,0,0-8.2-2.73-11.11,11.47,0,0-1.23,8.55,1.76,12.43A6.53,6.53,0,0,0,366.27,41.14Z"/><path class="cls-3" d="M377.69,46.3s6.41,1.51,12.28-6c0,0,7.57-9.44,3.92-16.5,0,0-5.6-6.59-15.45,4,0,0-5.49,6.67-4.93,11.55A6.52,6.52,0,0,0,377.69,46.3Z"/><path class="cls-4" d="M386.65,56.18s5.38,3.79,13.61-1c0,0,10.55-5.93,9.78-13.85,0,0-2.73-8.2-15.83-2,0,0-7.58,4.15-8.89,8.87A6.52,6.52,0,0,0,386.65,56.18Z"/><path class="cls-5" d="M390,68.66s3.42,5.62,12.87,4.56c0,0,12-1.22,14.5-8.78,0,0,.77-8.61-13.72-8.17,0,0-8.6.77-11.69,4.58A6.53,6.53,0,0,0,390,68.66Z"/><path class="cls-6" d="M388,80.86s.66,6.54,9.64,9.66c0,0,11.38,4.1,16.87-1.66,0,0,4.41-7.44-8.85-13.29,0,0-8.1-3-12.52-.91A6.53,6.53,0,0,0,388,80.86Z"/><path class="cls-7" d="M380.81,90.6s-2.25,6.19,4.48,12.89c0,0,8.48,8.63,15.93,5.83,0,0,7.2-4.79-2.21-15.82,0,0-6-6.23-10.88-6.25A6.52,6.52,0,0,0,380.81,90.6Z"/><path class="cls-8" d="M369.69,97.12s-4.56,4.75-1.1,13.6c0,0,4.27,11.32,12.21,11.76,0,0,8.52-1.47,4.37-15.36,0,0-3-8.12-7.44-10.12A6.52,6.52,0,0,0,369.69,97.12Z"/><path class="cls-9" d="M357.93,97.73s-6.29,2-7.55,11.38c0,0-1.73,12,5,16.19,0,0,8.17,2.84,11.25-11.32,0,0,1.34-8.54-1.61-12.46A6.52,6.52,0,0,0,357.93,97.73Z"/><path class="cls-10" d="M345.86,93.55s-6.54-.76-11.5,7.34c0,0-6.44,10.25-2,16.84,0,0,6.33,5.9,14.88-5.8,0,0,4.68-7.26,3.57-12A6.52,6.52,0,0,0,345.86,93.55Z"/><path class="cls-11" d="M337.16,84.88s-5.58-3.49-13.54,1.7c0,0-10.21,6.49-9,14.36,0,0,3.18,8,15.93,1.14,0,0,7.34-4.56,8.39-9.35A6.52,6.52,0,0,0,337.16,84.88Z"/><path class="cls-12" d="M332.93,73.33s-3.56-5.54-13-4.23c0,0-12,1.52-14.28,9.14,0,0-.55,8.63,13.92,7.82,0,0,8.59-1,11.57-4.88A6.52,6.52,0,0,0,332.93,73.33Z"/><path class="cls-13" d="M334.29,60s-1.25-6.46-10.48-8.75c0,0-11.71-3-16.65,3.21,0,0-3.71,7.81,10,12.42,0,0,8.34,2.26,12.56-.24A6.53,6.53,0,0,0,334.29,60Z"/><path class="cls-14" d="M340.88,49.64s1.78-6.33-5.43-12.52c0,0-9.09-8-16.31-4.63,0,0-6.83,5.31,3.37,15.61,0,0,6.43,5.77,11.32,5.43A6.52,6.52,0,0,0,340.88,49.64Z"/><path class="cls-15" d="M352.13,42.52s4.66-4.64,1.41-13.57c0,0-4-11.41-12-12,0,0-8.55,1.28-4.72,15.25,0,0,2.78,8.19,7.21,10.29A6.52,6.52,0,0,0,352.13,42.52Z"/><text class="cls-16" transform="translate(28.36 116.11)">SUNFL</text><text class="cls-16" transform="translate(417.74 116.38)">WER LAB</text></svg>